<svg version="1.0" xmlns="http://www.w3.org/2000/svg" viewBox="0 0 192 192"><g fill="#00B2FF" stroke-width="0"><path d="M0 96v96h192V0H0v96zm62.1-38.4c8.2 1.9 8.9 2.9 8.9 13 0 5.7-.2 6.4-1.9 6.4-1.4 0-2.7-1.6-4.5-5.5-3.1-6.9-7.1-9.5-14.4-9.5-4.6 0-5.8.4-8.3 2.9-2.7 2.8-3.5 5.5-2.9 10.6.5 4.8 3.5 7.9 14.8 15.2 12.6 8.1 17.6 12.2 19.8 16.5 1.9 3.6 1.8 11.2-.2 15.4-3.6 7.5-13.9 13.4-23.3 13.4-4.5 0-19.3-2.8-20.3-3.8-.7-.7-1.5-4.4-3.4-16-.5-3.2-.4-3.3 2.2-3 2 .2 3 1.1 3.8 3.3 3.5 9.6 8.6 13.7 17.6 13.8 9.5.1 14.2-4.4 14.2-13.4-.1-6.6-2.2-8.9-14.6-16.1C34.1 91.9 29 85.9 29 76.5c0-8.7 6-16.1 15.2-19 5.8-1.8 9.6-1.8 17.9.1zm86.1 21.1.3 5.8 8.3.3c8.4.3 9.1.7 7.6 4.6-.5 1.3-2.2 1.6-8.5 1.6H148v14.2c0 17.4.8 21 5.3 23.2 3.3 1.5 7 1.3 9.5-.7 1-.8 1.6-.7 2.2.3 1.4 2.2-1.6 4.8-7.3 6.5-7.9 2.4-13.9-.1-17.6-7.2-.7-1.4-1.1-8.6-1.1-19.2V91h-3.4c-1.9 0-3.8-.5-4.1-1.1-.4-.5 1.5-3.1 4.2-5.7s5.8-6.2 6.8-8c1.1-1.7 2.7-3.2 3.7-3.2 1.4 0 1.8 1.1 2 5.7zm-33.9 5.9c7.4 2.5 12.7 10.5 12.7 19.1 0 4-1.1 4.3-19.2 4.3-11.6 0-14.8.3-14.8 1.3 0 3.9 3.5 10.9 7.1 14.2 3.6 3.2 4.4 3.5 10.2 3.5 4.3 0 7.4-.6 10-2 4.5-2.5 4.7-2.5 4.7-.1 0 1.1-1.5 3.2-3.2 4.7-9.9 8.3-23.8 7.1-32.3-2.9-10-11.7-6.7-33.8 6-40.4 6.9-3.6 11.9-4.1 18.8-1.7z"/><path d="M99.7 90c-2.7 2.2-4.8 5.5-6.1 9.7-.7 2.3-.7 2.3 11.3 2.3 13.3 0 13.4 0 10.7-6.3-2.9-7-10.7-9.8-15.9-5.7z"/></g><path d="M49.8 61.7c.7.3 1.6.2 1.9-.1.4-.3-.2-.6-1.3-.5-1.1 0-1.4.3-.6.6zm51 46c4.6.2 11.8.2 16 0 4.2-.1.5-.3-8.3-.3s-12.3.2-7.7.3zM83.2 110c0 1.4.2 1.9.5 1.2.2-.6.2-1.8 0-2.5-.3-.6-.5-.1-.5 1.3zm-57.1 4.6c0 1.1.3 1.4.6.6.3-.7.2-1.6-.1-1.9-.3-.4-.6.2-.5 1.3zm38 5c0 1.1.3 1.4.6.6.3-.7.2-1.6-.1-1.9-.3-.4-.6.2-.5 1.3zm45.7 8.1c.6.2 1.8.2 2.5 0 .6-.3.1-.5-1.3-.5-1.4 0-1.9.2-1.2.5zm42 8c.7.3 1.6.2 1.9-.1.4-.3-.2-.6-1.3-.5-1.1 0-1.4.3-.6.6z" fill="#0CF"/><path d="M50.3 56.7c.9.2 2.5.2 3.5 0 .9-.3.1-.5-1.8-.5-1.9 0-2.7.2-1.7.5zm-16.4 7c-1.3 1.6-1.2 1.7.4.4.9-.7 1.7-1.5 1.7-1.7 0-.8-.8-.3-2.1 1.3zm36.2 2.9c0 1.1.3 1.4.6.6.3-.7.2-1.6-.1-1.9-.3-.4-.6.2-.5 1.3zm35.7 17.1c.6.2 1.8.2 2.5 0 .6-.3.1-.5-1.3-.5-1.4 0-1.9.2-1.2.5zm-15.4 6.5-1.9 2.3 2.3-1.9c2.1-1.8 2.7-2.6 1.9-2.6-.2 0-1.2 1-2.3 2.2zm7.5.5c-1.3 1.6-1.2 1.7.4.4.9-.7 1.7-1.5 1.7-1.7 0-.8-.8-.3-2.1 1.3zm1.9 12c3.4.2 8.8.2 12 0 3.1-.2.3-.3-6.3-.3s-9.2.1-5.7.3zm21.6 26.5-1.9 2.3 2.3-1.9c2.1-1.8 2.7-2.6 1.9-2.6-.2 0-1.2 1-2.3 2.2z" fill="#FCF"/><path d="M41.5 58.9C34.3 62.2 29 70 29 77.2c0 4.7 3.6 11.4 8.3 15.2 2.3 1.8 8.6 5.9 14 9.1 10.9 6.3 13.7 9.6 13.7 16 0 10.8-12.3 17-22.9 11.5-4.7-2.3-7.4-5.6-9.7-11.6-1.9-5.1-5.4-6.3-5.4-1.9 0 6 2.5 16.5 4 17 .8.2 5.4 1.1 10.3 2 7 1.3 9.8 1.4 14.1.5 10.4-2.1 17.8-8.9 19.2-17.7 1.4-9.1-2.9-14.6-20.1-25.7-6.1-4-12.1-8.5-13.3-10-4.4-5.6-3.7-14.8 1.4-18.1 8.4-5.5 19.7-.7 23.5 9.9.9 2.4 1.9 3.6 3.2 3.6 1.8 0 1.9-.5 1.2-8.3-.4-4.5-.8-8.3-1-8.5-.2-.2-2.7-1-5.6-1.8-7.6-2-17.5-1.8-22.4.5zm101.2 17.9c-1.3 2-4.3 5.4-6.6 7.5-5.1 4.6-5.3 6.7-.7 6.7h3.4l.4 17.7c.3 15.5.5 18.2 2.2 20.6 4 5.9 11.7 7.3 19.3 3.6 4.6-2.2 6.2-5.7 2.1-4.4-6.4 2-8.7 1.8-11.8-1.3l-3-3V91h7.5c6.4 0 7.6-.3 8.5-2 1.8-3.3.3-4-8.1-4H148v-6c0-7.2-1.7-8-5.3-2.2zm-45.3 8.7c-4.6 2.1-11 9.8-12.3 15-3.4 13.5 1.4 26.6 11.9 32 5 2.6 12.3 3 17.4 1.1 4.2-1.6 11.4-8.2 10.2-9.3-.3-.3-2.9.4-5.8 1.7-12.1 5.2-23.6-1.3-25.4-14.3l-.7-4.7 16.9-.2c19.3-.3 18.8 0 15.9-9.2-1.9-6.1-5.3-10.2-10.1-12.2-4.2-1.8-13.9-1.7-18 .1zm15.5 5.9c2.2 2.3 3.4 4.7 3.8 7.5l.6 4.1h-11.6c-6.8 0-11.8-.4-12.2-1-1-1.7 1.4-7.7 4.5-11 2.3-2.5 3.6-3 7.2-3 3.7 0 4.9.5 7.7 3.4z" fill="#FFF"/></svg>